<?xml version="1.0" encoding="utf-8"?>
<!-- Generator: Adobe Illustrator 22.0.1, SVG Export Plug-In . SVG Version: 6.00 Build 0)  -->
<svg version="1.1" id="main" xmlns="http://www.w3.org/2000/svg" xmlns:xlink="http://www.w3.org/1999/xlink" x="0px" y="0px"
	 viewBox="0 0 400 70" style="enable-background:new 0 0 400 70;" xml:space="preserve">
<style type="text/css">
	.st0{fill:#000000;}
</style>
<g>
	<path class="st0" d="M56.303,68.452H53.93L11.582,19.989v48.463H3.55V1.645h2.373l42.622,49.102V1.645h7.758V68.452z"/>
	<path class="st0" d="M101.691,51.133H70.28c0.219,3.943,1.544,7.108,3.976,9.496c2.431,2.388,5.333,3.581,8.707,3.581
		c5.738,0,10.12-2.826,13.142-8.477l4.6,2.366c-2.06,3.812-4.491,6.627-7.294,8.444c-2.804,1.818-6.155,2.727-10.054,2.727
		c-5.388,0-9.835-1.851-13.339-5.553c-3.505-3.702-5.257-8.159-5.257-13.373c0-5.213,1.763-9.681,5.29-13.405
		c3.526-3.723,7.896-5.585,13.109-5.585c5.213,0,9.572,1.764,13.077,5.29C99.741,40.17,101.56,45,101.691,51.133z M95.645,46.336
		c-0.657-3.066-2.147-5.454-4.468-7.163c-2.322-1.708-4.994-2.563-8.017-2.563c-6.134,0-10.208,3.243-12.222,9.726H95.645z"/>
	<path class="st0" d="M141.184,68.086h-7.82l-16.822-15.114v15.114h-5.454V18.802h5.454V45.81l15.442-13.471l8.083-0.065
		l-19.714,17.085L141.184,68.086z"/>
	<path class="st0" d="M161.751,31.354c5.168,0,9.561,1.862,13.175,5.585c3.614,3.724,5.421,8.192,5.421,13.405
		c0,5.214-1.786,9.671-5.356,13.373c-3.571,3.702-7.984,5.553-13.241,5.553s-9.683-1.851-13.274-5.553
		c-3.593-3.702-5.389-8.159-5.389-13.373c0-5.213,1.807-9.681,5.421-13.405C152.124,33.216,156.537,31.354,161.751,31.354z
		 M161.751,64.078c3.636,0,6.735-1.325,9.298-3.976c2.562-2.65,3.844-5.849,3.844-9.594c0-3.745-1.304-6.987-3.91-9.725
		c-2.607-2.737-5.695-4.107-9.265-4.107c-3.571,0-6.648,1.37-9.233,4.107c-2.585,2.738-3.877,5.991-3.877,9.758
		c0,3.768,1.249,6.965,3.746,9.594S157.983,64.078,161.751,64.078z"/>
	<path class="st0" d="M204.267,37.005h-7.097v25.102c0,0.92,0.131,1.479,0.394,1.675c0.263,0.197,0.92,0.296,1.972,0.296h3.154
		v4.666c-2.103,0.351-3.702,0.526-4.797,0.526c-2.103,0-3.658-0.515-4.666-1.544c-1.008-1.029-1.511-2.661-1.511-4.896V37.005
		h-6.177v-4.731h6.177V18.802h5.454v13.471h7.097V37.005z"/>
	<path class="st0" d="M247.046,68.086h-5.322V62.83c-3.9,4.294-8.391,6.44-13.473,6.44s-9.43-1.873-13.043-5.619
		c-3.614-3.746-5.421-8.214-5.421-13.405s1.818-9.637,5.455-13.339c3.635-3.702,8.07-5.553,13.307-5.553
		c5.234,0,9.627,2.125,13.176,6.374v-5.454h5.322V68.086z M228.645,64.209c3.637,0,6.77-1.314,9.396-3.943
		c2.629-2.628,3.943-5.903,3.943-9.824c0-3.92-1.293-7.206-3.877-9.857c-2.586-2.65-5.75-3.976-9.496-3.976
		c-3.744,0-6.91,1.37-9.494,4.107c-2.586,2.738-3.877,5.97-3.877,9.693c0,3.724,1.314,6.955,3.941,9.692
		C221.811,62.841,224.965,64.209,228.645,64.209z"/>
	<path class="st0" d="M308.57,68.452h-33.13V1.645h7.939v59.232h25.19V68.452z"/>
	<path class="st0" d="M350.518,68.086h-5.322V62.83c-3.9,4.294-8.39,6.44-13.472,6.44s-9.43-1.873-13.044-5.619
		s-5.421-8.214-5.421-13.405s1.817-9.637,5.454-13.339c3.636-3.702,8.071-5.553,13.307-5.553c5.234,0,9.627,2.125,13.176,6.374
		v-5.454h5.322V68.086z M332.119,64.209c3.636,0,6.769-1.314,9.396-3.943c2.629-2.628,3.943-5.903,3.943-9.824
		c0-3.92-1.293-7.206-3.877-9.857c-2.586-2.65-5.75-3.976-9.496-3.976c-3.745,0-6.911,1.37-9.495,4.107
		c-2.585,2.738-3.877,5.97-3.877,9.693c0,3.724,1.314,6.955,3.942,9.692C325.285,62.841,328.439,64.209,332.119,64.209z"/>
	<path class="st0" d="M365.37,37.53c3.723-4.117,8.191-6.177,13.405-6.177c5.213,0,9.604,1.851,13.175,5.553
		c3.57,3.702,5.355,8.16,5.355,13.372c0,5.214-1.818,9.683-5.454,13.406c-3.637,3.724-8.027,5.585-13.175,5.585
		c-5.148,0-9.584-2.234-13.307-6.703v5.52h-5.323V18.802h5.323V37.53z M378.446,64.012c3.724,0,6.889-1.38,9.496-4.14
		c2.605-2.76,3.909-5.99,3.909-9.692c0-3.702-1.271-6.933-3.811-9.693c-2.542-2.76-5.718-4.14-9.528-4.14
		c-3.812,0-6.999,1.292-9.562,3.877c-2.562,2.585-3.844,5.838-3.844,9.758c0,3.921,1.291,7.24,3.877,9.956
		C371.568,62.655,374.722,64.012,378.446,64.012z"/>
</g>
</svg>
